<?xml version="1.0" encoding="iso-8859-1"?>
<!-- Generator: Adobe Illustrator 21.0.0, SVG Export Plug-In . SVG Version: 6.00 Build 0)  -->
<svg xmlns="http://www.w3.org/2000/svg" xmlns:xlink="http://www.w3.org/1999/xlink" version="1.1" id="Capa_1" x="0px" y="0px" viewBox="0 0 512 512" style="enable-background:new 0 0 512 512;" xml:space="preserve" width="512" height="512">
<g>
	<path style="fill:#F57C7C;" d="M218.561,320.424v41.515c0,16.046-44.741,29.06-99.928,29.06s-99.928-13.015-99.928-29.06v-41.515   H218.561z"/>
	<path style="fill:#EF6161;" d="M187.656,320.424v41.515c0,14.517-36.626,26.553-84.475,28.714   c5.037,0.227,10.197,0.346,15.453,0.346c55.187,0,99.928-13.015,99.928-29.06v-41.515H187.656z"/>
	<path style="fill:#F57C7C;" d="M512,220.636c0,55.026-25.827,99.636-57.69,99.636H274.543V121H454.31   C486.173,121,512,165.61,512,220.636z"/>
	<path style="fill:#EF6161;" d="M454.31,121h-30.905c31.863,0,57.69,44.61,57.69,99.636s-25.827,99.636-57.69,99.636h30.905   c31.863,0,57.69-44.61,57.69-99.636S486.173,121,454.31,121z"/>
	<ellipse style="fill:#FAB2B2;" cx="274.543" cy="220.636" rx="57.69" ry="99.636"/>
	<ellipse style="fill:#FAB2B2;" cx="118.634" cy="320.424" rx="99.928" ry="29.06"/>
	<path style="fill:#F57C7C;" d="M118.634,291.364c-5.256,0-10.416,0.119-15.453,0.346c47.851,2.16,84.475,14.193,84.475,28.714   s-36.624,26.554-84.475,28.714c5.037,0.227,10.197,0.346,15.453,0.346c55.188,0,99.928-13.011,99.928-29.061   C218.561,304.375,173.822,291.364,118.634,291.364z"/>
	<path style="fill:#F57C7C;" d="M199.855,237.37v41.515c0,16.046-44.741,29.06-99.928,29.06S0,294.931,0,278.885V237.37H199.855z"/>
	<path style="fill:#EF6161;" d="M168.95,237.37v41.515c0,14.517-36.626,26.553-84.475,28.714c5.037,0.227,10.197,0.346,15.453,0.346   c55.187,0,99.928-13.015,99.928-29.06V237.37H168.95z"/>
	<ellipse style="fill:#FAB2B2;" cx="99.928" cy="237.37" rx="99.928" ry="29.06"/>
	<path style="fill:#F57C7C;" d="M99.928,208.31c-5.256,0-10.416,0.119-15.453,0.346c47.851,2.16,84.475,14.193,84.475,28.714   c0,14.521-36.624,26.554-84.475,28.714c5.037,0.227,10.197,0.346,15.453,0.346c55.188,0,99.928-13.011,99.928-29.06   C199.855,221.321,155.116,208.31,99.928,208.31z"/>
	<g>
		<path style="fill:#F57C7C;" d="M279.715,170.469c1.106,3.048,3.984,4.941,7.05,4.941c0.85,0,1.715-0.146,2.56-0.453    c3.894-1.415,5.903-5.717,4.488-9.61l-3.98-10.957c-1.413-3.893-5.715-5.903-9.609-4.488c-3.894,1.415-5.903,5.717-4.488,9.61    L279.715,170.469z"/>
		<path style="fill:#F57C7C;" d="M266.722,212.372l-10.232-5.63c-3.628-1.997-8.188-0.673-10.187,2.956    c-1.996,3.629-0.673,8.189,2.956,10.187l10.232,5.63c1.146,0.631,2.386,0.93,3.608,0.93c2.646,0,5.212-1.404,6.578-3.886    C271.674,218.93,270.351,214.369,266.722,212.372z"/>
		<path style="fill:#F57C7C;" d="M291.911,252.708c-3.02-2.836-7.767-2.686-10.602,0.333l-7.988,8.507    c-2.835,3.02-2.686,7.766,0.334,10.602c1.447,1.359,3.292,2.033,5.132,2.033c1.999,0,3.993-0.794,5.47-2.366l7.988-8.507    C295.08,260.29,294.931,255.543,291.911,252.708z"/>
		<path style="fill:#F57C7C;" d="M73.178,226.131l-11.656-0.857c-4.107-0.298-7.726,2.799-8.029,6.93    c-0.304,4.131,2.798,7.726,6.93,8.03l11.656,0.857c0.187,0.014,0.373,0.021,0.558,0.021c3.892,0,7.182-3.007,7.472-6.95    C80.411,230.03,77.31,226.435,73.178,226.131z"/>
		<path style="fill:#F57C7C;" d="M124.834,229.801l-9.462,2.703c-3.982,1.138-6.289,5.289-5.151,9.271    c0.941,3.295,3.944,5.442,7.208,5.442c0.682,0,1.376-0.094,2.064-0.291l9.462-2.703c3.982-1.138,6.289-5.289,5.151-9.271    C132.969,230.969,128.819,228.661,124.834,229.801z"/>
	</g>
</g>















</svg>
