<svg id="Capa_1" enable-background="new 0 0 512 512" height="512" viewBox="0 0 512 512" width="512" xmlns="http://www.w3.org/2000/svg"><g><g><path d="m311.927 55.988h-111.853c-5.376 0-9.734-4.358-9.734-9.734v-29.02c0-5.376 4.358-9.734 9.734-9.734h111.853c5.376 0 9.734 4.358 9.734 9.734v29.019c0 5.377-4.358 9.735-9.734 9.735z" fill="#e7a561"/></g><g><path d="m311.927 7.5h-27.707c5.376 0 9.734 4.358 9.734 9.734v29.019c0 5.376-4.358 9.734-9.734 9.734h27.707c5.376 0 9.734-4.358 9.734-9.734v-29.019c0-5.376-4.358-9.734-9.734-9.734z" fill="#e49542"/></g><g><path d="m355.29 288.189-48.782-232.201h-101.016l-48.782 232.201c-1.148 5.464-1.726 11.032-1.726 16.615v159.29c0 22.316 18.091 40.406 40.407 40.406h121.219c22.316 0 40.407-18.091 40.407-40.406v-159.29c0-5.583-.579-11.152-1.727-16.615z" fill="#ffe07d"/></g><g><path d="m355.29 288.189-48.782-232.201h-22.224l48.782 232.201c1.148 5.464 1.726 11.032 1.726 16.615v159.29c0 22.316-18.091 40.406-40.407 40.406h22.224c22.316 0 40.407-18.091 40.407-40.406v-159.29c.001-5.583-.578-11.152-1.726-16.615z" fill="#ffd064"/></g><g><path d="m154.984 306.508h202.033v135.362h-202.033z" fill="#ecf4ff"/></g><g><path d="m334.793 306.508h22.224v135.362h-22.224z" fill="#cbe2ff"/></g><g><circle cx="256" cy="374.189" fill="#ffe07d" r="34.346"/></g><g><path d="m362.63 286.648-21.91-104.301c-.852-4.054-4.829-6.652-8.882-5.798-4.054.852-6.649 4.828-5.798 8.882l21.911 104.305c.643 3.052 1.066 6.155 1.314 9.271h-186.53c.248-3.116.671-6.22 1.315-9.275l47.529-226.242h88.843l18.398 87.592c.851 4.053 4.823 6.649 8.882 5.798 4.054-.852 6.649-4.828 5.798-8.882l-17.839-84.927c7.711-1.712 13.499-8.599 13.499-16.821v-29.02c0-9.501-7.729-17.23-17.23-17.23h-64.25c-4.142 0-7.5 3.357-7.5 7.5s3.358 7.5 7.5 7.5h64.25c1.229 0 2.23 1.001 2.23 2.23v29.02c0 1.235-1.001 2.24-2.23 2.24h-111.86c-1.229 0-2.23-1.005-2.23-2.24v-29.02c0-1.229 1-2.23 2.23-2.23h12.51c4.142 0 7.5-3.357 7.5-7.5s-3.358-7.5-7.5-7.5h-12.51c-9.5 0-17.23 7.729-17.23 17.23v29.02c0 8.223 5.788 15.11 13.499 16.822l-46.968 223.573c-1.255 5.958-1.891 12.066-1.891 18.155v44.94c0 4.143 3.358 7.5 7.5 7.5s7.5-3.357 7.5-7.5v-35.732h187.04v120.362h-187.04v-49.53c0-4.143-3.358-7.5-7.5-7.5s-7.5 3.357-7.5 7.5v79.25c0 26.418 21.492 47.91 47.91 47.91h121.22c26.417 0 47.909-21.492 47.909-47.91v-159.29c.001-6.093-.635-12.201-1.889-18.152zm-46.019 210.352h-121.221c-18.146 0-32.91-14.764-32.91-32.91v-14.72h187.04v14.72c0 18.146-14.763 32.91-32.909 32.91z"/><path d="m297.846 374.189c0-23.074-18.771-41.846-41.846-41.846-23.074 0-41.846 18.771-41.846 41.846 0 23.073 18.772 41.845 41.846 41.845s41.846-18.771 41.846-41.845zm-68.691 0c0-14.803 12.043-26.846 26.846-26.846s26.846 12.043 26.846 26.846c0 14.802-12.043 26.845-26.846 26.845s-26.846-12.043-26.846-26.845z"/></g></g></svg>