<svg height="512" viewBox="0 0 58 58" width="512" xmlns="http://www.w3.org/2000/svg"><g id="Page-1" fill="none" fill-rule="evenodd"><g id="006---Butter" fill-rule="nonzero" transform="translate(0 -1)"><path id="Rectangle-path" d="m17.522 11.537h5.837v4h-5.837z" fill="#95a5a5" transform="matrix(.789 .614 -.614 .789 12.616 -9.698)"/><path id="Shape" d="m52.558 59h-47.116c-.86195084.0010693-1.62762399-.5502154-1.9-1.368l-1.542-4.632 27-2 27 2-1.544 4.632c-.2721439.8170855-1.0367852 1.3682074-1.898 1.368z" fill="#2fa8cc"/><path id="Shape" d="m41.01 27h10.99c1.1032019.0032948 1.9967052.8967981 2 2v20h-50v-20c.0032948-1.1032019.89679813-1.9967052 2-2z" fill="#f3d55b"/><path id="Shape" d="m41.79 28.87-.61.79c-.9758636 1.2573152-2.4113001 2.0753846-3.9904237 2.2741816-1.5791235.1987971-3.1725322-.2379688-4.4295763-1.2141816l-1.76-1.37v-1.35c0-.5522847-.4477153-1-1-1h-2.02l-7.85-6.11c-.4207673-.3227378-.6946574-.8006286-.7604315-1.3268211-.065774-.5261924.0820541-1.056798.4104315-1.4731789l3.68-4.74 17.55 13.65.6.47c.2106844.1609561.3482524.3994821.3820624.6624491.0338101.2629671-.0389459.5285347-.2020624.7375509z" fill="#bdc3c7"/><path id="Shape" d="m4.51752883 4.9527105h15.22699997v5c0 .5522847-.4477152 1-1 1h-12.22699997c-1.65685425 0-3-1.34314575-3-3v-2c0-.55228475.44771525-1 1-1z" fill="#35495e" transform="matrix(.789 .614 -.614 .789 7.333 -5.466)"/><path id="Shape" d="m10 32h-2c-.55228475 0-1-.4477153-1-1s.44771525-1 1-1h2c.5522847 0 1 .4477153 1 1s-.4477153 1-1 1z" fill="#f5efca"/><path id="Shape" d="m26 32h-12c-.5522847 0-1-.4477153-1-1s.4477153-1 1-1h12c.5522847 0 1 .4477153 1 1s-.4477153 1-1 1z" fill="#f5efca"/><path id="Rectangle-path" d="m4 46h50v4h-50z" fill="#f0c419"/><path id="Shape" d="m0 49h58v2c0 1.1045695-.8954305 2-2 2h-54c-1.1045695 0-2-.8954305-2-2z" fill="#67b9cc"/></g></g></svg>