<svg id="Layer_1" enable-background="new 0 0 496.997 496.997" height="512" viewBox="0 0 496.997 496.997" width="512" xmlns="http://www.w3.org/2000/svg"><g><g><path d="m475.899 41.187c64.276 64.201-367.179 501.567-434.669 434.157-47.48-47.424 11.334-183.058 131.365-302.947s255.824-178.634 303.304-131.21z" fill="#cf7a15"/><g><path d="m489.929 17.839c-38.448-38.403-130.223-12.688-228.463 56.848-1.781 1.26-1.431 4.004.607 4.783 33.516 12.808 67.238 28.931 62.567 40.61-5.886 14.716-66.31 1.198-107.414-9.915-.864-.234-1.777-.032-2.463.541-18.206 15.216-36.381 31.8-54.235 49.633-.01.01-.021.021-.031.031-1.419 1.418-.871 3.832 1.019 4.503 37.771 13.401 84.579 33.076 79.129 46.702-6.257 15.642-74.138-.616-114.932-11.978-1.014-.283-2.097.044-2.792.835-15.554 17.716-29.829 35.53-42.712 53.178-1.077 1.475-.422 3.566 1.296 4.185 36.99 13.342 80.404 32.125 75.144 45.276-5.624 14.061-61.04 2.345-101.819-8.42-1.169-.309-2.4.189-3.032 1.219-51.862 84.494-67.807 159.654-33.938 193.482 73.297 73.211 541.876-401.788 472.069-471.513z" fill="#f0a346"/></g><g><path d="m489.929 17.839c-15.947-15.928-41.073-20.816-72.023-16.132 12.858 2.508 23.694 7.813 32.024 16.132 61.032 60.96-289.474 431.706-427.543 475.022 86.089 52.091 536.047-406.599 467.542-475.022z" fill="#eb8f21"/></g></g><g><path d="m65.153 346.569c9.652 0 9.668-15 0-15-9.652 0-9.668 15 0 15z" fill="#fff4db"/></g><g><path d="m51.654 385.567c9.652 0 9.668-15 0-15-9.652 0-9.668 15 0 15z" fill="#a1550a"/></g><g><path d="m104.151 351.068c9.652 0 9.668-15 0-15-9.652 0-9.668 15 0 15z" fill="#a1550a"/></g><g><path d="m128.15 255.073c9.652 0 9.668-15 0-15-9.652 0-9.668 15 0 15z" fill="#fff4db"/></g><g><path d="m168.648 246.074c9.652 0 9.668-15 0-15-9.652 0-9.668 15 0 15z" fill="#a1550a"/></g><g><path d="m179.147 279.072c9.652 0 9.668-15 0-15-9.651 0-9.667 15 0 15z" fill="#fff4db"/></g><g><path d="m212.146 163.578c9.652 0 9.668-15 0-15-9.652 0-9.668 15 0 15z" fill="#a1550a"/></g><g><path d="m251.144 156.078c9.652 0 9.668-15 0-15-9.652 0-9.668 15 0 15z" fill="#fff4db"/></g><g><path d="m258.144 185.577c9.652 0 9.668-15 0-15-9.652 0-9.668 15 0 15z" fill="#a1550a"/></g><g><path d="m317.141 81.082c9.652 0 9.668-15 0-15-9.652 0-9.668 15 0 15z" fill="#fff4db"/></g><g><path d="m359.138 63.083c9.652 0 9.668-15 0-15-9.651 0-9.667 15 0 15z" fill="#a1550a"/></g><g><path d="m351.639 99.081c9.652 0 9.668-15 0-15-9.652 0-9.668 15 0 15z" fill="#fff4db"/></g></g></svg>